<svg width="77" height="40" viewBox="0 0 77 40" fill="none" xmlns="http://www.w3.org/2000/svg">
<path d="M28 21H24V25H22V21H18V19H22V15H24V19H28V21ZM20 15H8V16H20V15ZM8 20H16V19H8V20ZM8 24H16V23H8V24Z" fill="white"/>
<path d="M42.0498 22.3887C42.0498 22.0013 41.9131 21.7051 41.6396 21.5C41.3662 21.2904 40.874 21.0716 40.1631 20.8438C39.4521 20.6113 38.8893 20.3835 38.4746 20.1602C37.3444 19.5495 36.7793 18.7269 36.7793 17.6924C36.7793 17.1546 36.9297 16.6761 37.2305 16.2568C37.5358 15.833 37.971 15.5026 38.5361 15.2656C39.1058 15.0286 39.7438 14.9102 40.4502 14.9102C41.1611 14.9102 41.7946 15.04 42.3506 15.2998C42.9066 15.555 43.3372 15.9173 43.6426 16.3867C43.9525 16.8561 44.1074 17.3893 44.1074 17.9863H42.0566C42.0566 17.5306 41.9131 17.1774 41.626 16.9268C41.3389 16.6715 40.9355 16.5439 40.416 16.5439C39.9147 16.5439 39.5251 16.651 39.2471 16.8652C38.9691 17.0749 38.8301 17.3529 38.8301 17.6992C38.8301 18.0228 38.9919 18.2939 39.3154 18.5127C39.6436 18.7314 40.1243 18.9365 40.7578 19.1279C41.9245 19.4788 42.7744 19.9141 43.3076 20.4336C43.8408 20.9531 44.1074 21.6003 44.1074 22.375C44.1074 23.2363 43.7816 23.9131 43.1299 24.4053C42.4782 24.8929 41.6009 25.1367 40.498 25.1367C39.7324 25.1367 39.0352 24.9977 38.4062 24.7197C37.7773 24.4372 37.2965 24.0521 36.9639 23.5645C36.6357 23.0768 36.4717 22.5117 36.4717 21.8691H38.5293C38.5293 22.9674 39.1855 23.5166 40.498 23.5166C40.9857 23.5166 41.3662 23.4186 41.6396 23.2227C41.9131 23.0221 42.0498 22.7441 42.0498 22.3887ZM51.1211 22.9492H47.5254L46.8418 25H44.6611L48.3662 15.0469H50.2666L53.9922 25H51.8115L51.1211 22.9492ZM48.0791 21.2881H50.5674L49.3164 17.5625L48.0791 21.2881ZM58.0664 22.5322L60.3223 15.0469H62.6055L59.1396 25H57L53.5479 15.0469H55.8242L58.0664 22.5322ZM69.5371 20.6865H65.5996V23.3525H70.2207V25H63.5488V15.0469H70.207V16.708H65.5996V19.0801H69.5371V20.6865Z" fill="white"/>
</svg>
