<svg width="88" height="24" viewBox="0 0 88 24" fill="none" xmlns="http://www.w3.org/2000/svg">
<path d="M21 6H3V5H21V6ZM15 11H3V12H15V11ZM9 17H3V18H9V17Z" fill="white"/>
<path d="M38.0498 14.3887C38.0498 14.0013 37.9131 13.7051 37.6396 13.5C37.3662 13.2904 36.874 13.0716 36.1631 12.8438C35.4521 12.6113 34.8893 12.3835 34.4746 12.1602C33.3444 11.5495 32.7793 10.7269 32.7793 9.69238C32.7793 9.15462 32.9297 8.67611 33.2305 8.25684C33.5358 7.83301 33.971 7.5026 34.5361 7.26562C35.1058 7.02865 35.7438 6.91016 36.4502 6.91016C37.1611 6.91016 37.7946 7.04004 38.3506 7.2998C38.9066 7.55501 39.3372 7.91732 39.6426 8.38672C39.9525 8.85612 40.1074 9.38932 40.1074 9.98633H38.0566C38.0566 9.5306 37.9131 9.17741 37.626 8.92676C37.3389 8.67155 36.9355 8.54395 36.416 8.54395C35.9147 8.54395 35.5251 8.65104 35.2471 8.86523C34.9691 9.07487 34.8301 9.35286 34.8301 9.69922C34.8301 10.0228 34.9919 10.2939 35.3154 10.5127C35.6436 10.7314 36.1243 10.9365 36.7578 11.1279C37.9245 11.4788 38.7744 11.9141 39.3076 12.4336C39.8408 12.9531 40.1074 13.6003 40.1074 14.375C40.1074 15.2363 39.7816 15.9131 39.1299 16.4053C38.4782 16.8929 37.6009 17.1367 36.498 17.1367C35.7324 17.1367 35.0352 16.9977 34.4062 16.7197C33.7773 16.4372 33.2965 16.0521 32.9639 15.5645C32.6357 15.0768 32.4717 14.5117 32.4717 13.8691H34.5293C34.5293 14.9674 35.1855 15.5166 36.498 15.5166C36.9857 15.5166 37.3662 15.4186 37.6396 15.2227C37.9131 15.0221 38.0498 14.7441 38.0498 14.3887ZM49.6777 12.249C49.6777 13.2288 49.5046 14.0879 49.1582 14.8262C48.8118 15.5645 48.3151 16.1341 47.668 16.5352C47.0254 16.9362 46.2871 17.1367 45.4531 17.1367C44.6283 17.1367 43.8923 16.9385 43.2451 16.542C42.598 16.1455 42.0967 15.5804 41.7412 14.8467C41.3857 14.1084 41.2057 13.2607 41.2012 12.3037V11.8115C41.2012 10.8317 41.3766 9.97038 41.7275 9.22754C42.083 8.48014 42.582 7.9082 43.2246 7.51172C43.8717 7.11068 44.61 6.91016 45.4395 6.91016C46.2689 6.91016 47.0049 7.11068 47.6475 7.51172C48.2946 7.9082 48.7936 8.48014 49.1445 9.22754C49.5 9.97038 49.6777 10.8294 49.6777 11.8047V12.249ZM47.5996 11.7979C47.5996 10.7542 47.4128 9.96126 47.0391 9.41895C46.6654 8.87663 46.1322 8.60547 45.4395 8.60547C44.7513 8.60547 44.2204 8.87435 43.8467 9.41211C43.473 9.94531 43.2839 10.7292 43.2793 11.7637V12.249C43.2793 13.2653 43.4661 14.0537 43.8398 14.6143C44.2135 15.1748 44.7513 15.4551 45.4531 15.4551C46.1413 15.4551 46.6699 15.1862 47.0391 14.6484C47.4082 14.1061 47.5951 13.3177 47.5996 12.2832V11.7979ZM54.8525 13.3564H53.2188V17H51.168V7.04688H54.8662C56.042 7.04688 56.9489 7.30892 57.5869 7.83301C58.2249 8.3571 58.5439 9.09766 58.5439 10.0547C58.5439 10.7337 58.3958 11.3011 58.0996 11.7568C57.8079 12.208 57.3636 12.568 56.7666 12.8369L58.9199 16.9043V17H56.7188L54.8525 13.3564ZM53.2188 11.6953H54.873C55.388 11.6953 55.7868 11.5654 56.0693 11.3057C56.3519 11.0413 56.4932 10.679 56.4932 10.2188C56.4932 9.74935 56.3587 9.38021 56.0898 9.11133C55.8255 8.84245 55.4176 8.70801 54.8662 8.70801H53.2188V11.6953ZM67.2598 8.70801H64.2109V17H62.1602V8.70801H59.1523V7.04688H67.2598V8.70801ZM71.5117 17V7.04688H74.998C76.2057 7.04688 77.1217 7.2793 77.7461 7.74414C78.3704 8.20443 78.6826 8.88118 78.6826 9.77441C78.6826 10.262 78.5573 10.6927 78.3066 11.0664C78.056 11.4355 77.7074 11.7067 77.2607 11.8799C77.7712 12.0075 78.1722 12.265 78.4639 12.6523C78.7601 13.0397 78.9082 13.5137 78.9082 14.0742C78.9082 15.0312 78.6029 15.7559 77.9922 16.248C77.3815 16.7402 76.5111 16.9909 75.3809 17H71.5117ZM73.5625 12.666V15.3525H75.3193C75.8024 15.3525 76.1784 15.2386 76.4473 15.0107C76.7207 14.7783 76.8574 14.4593 76.8574 14.0537C76.8574 13.1423 76.3857 12.6797 75.4424 12.666H73.5625ZM73.5625 11.2168H75.0801C76.1146 11.1986 76.6318 10.7861 76.6318 9.97949C76.6318 9.52832 76.4997 9.20475 76.2354 9.00879C75.9756 8.80827 75.5632 8.70801 74.998 8.70801H73.5625V11.2168ZM83.502 11.5312L85.5732 7.04688H87.8154L84.5479 13.3906V17H82.4629V13.3906L79.1953 7.04688H81.4443L83.502 11.5312Z" fill="white"/>
</svg>
